<svg xmlns="http://www.w3.org/2000/svg" viewBox="189.6 234.7 462.7 125.9">
        <defs><clipPath id="cp0"><path transform="matrix(1,0,0,-1,0,595.276)" d="M0 595.276H841.89V0H0Z"/></clipPath></defs>
        <g clip-path="url(#cp0)">
          <path transform="matrix(1,0,0,-1,276.8658,272.3588)" d="M0 0V-17.481C0-18.439-.38-19.357-1.057-20.033L-7.58-26.556C-8.256-27.233-9.174-27.613-10.132-27.613H-57.173C-59.166-27.613-60.782-25.997-60.782-24.004V0C-60.782 1.993-59.166 3.609-57.173 3.609H-3.609C-1.616 3.609 0 1.993 0 0M14.874 5.359H5.359C3.366 5.359 1.75 6.975 1.75 8.968V18.484C1.75 20.477 .134 22.093-1.859 22.093H-42.91C-43.867 22.093-44.785 21.713-45.462 21.036L-78.209-11.711C-78.886-12.388-79.266-13.306-79.266-14.263V-25.754C-79.266-27.747-77.65-29.363-75.657-29.363H-66.061C-64.068-29.363-62.452-30.979-62.452-32.972V-42.488C-62.452-44.481-60.836-46.097-58.843-46.097H-26.141C-25.184-46.097-24.266-45.717-23.589-45.04L-6.161-27.612C-3.888-25.338 0-26.949 0-30.164V-58.137C0-60.131-1.616-61.746-3.609-61.746H-64.568C-66.561-61.746-68.177-63.362-68.177-65.355V-76.621C-68.177-78.614-66.561-80.23-64.568-80.23H-16.992C-16.034-80.23-15.116-79.85-14.44-79.173L16.949-47.784C17.931-46.802 18.483-45.469 18.483-44.08V-21.444-9.142 1.75C18.483 3.743 16.868 5.359 14.874 5.359" fill="#1d1d1b"/>
          <path transform="matrix(1,0,0,-1,374.6153,272.3588)" d="M0 0V-17.481C0-18.439-.38-19.357-1.057-20.033L-7.58-26.556C-8.256-27.233-9.174-27.613-10.132-27.613H-57.173C-59.166-27.613-60.782-25.997-60.782-24.004V0C-60.782 1.993-59.166 3.609-57.173 3.609H-3.609C-1.616 3.609 0 1.993 0 0M14.874 5.359H5.359C3.366 5.359 1.75 6.975 1.75 8.968V18.484C1.75 20.477 .134 22.093-1.859 22.093H-42.91C-43.867 22.093-44.785 21.713-45.462 21.036L-78.209-11.711C-78.886-12.388-79.266-13.306-79.266-14.263V-25.754C-79.266-27.747-77.65-29.363-75.657-29.363H-66.061C-64.068-29.363-62.452-30.979-62.452-32.972V-42.488C-62.452-44.481-60.836-46.097-58.843-46.097H-26.141C-25.184-46.097-24.266-45.717-23.589-45.04L-6.161-27.612C-3.888-25.338 0-26.949 0-30.164V-58.137C0-60.131-1.616-61.746-3.609-61.746H-64.568C-66.561-61.746-68.177-63.362-68.177-65.355V-76.621C-68.177-78.614-66.561-80.23-64.568-80.23H-16.992C-16.034-80.23-15.116-79.85-14.44-79.173L16.949-47.784C17.931-46.802 18.483-45.469 18.483-44.08V-21.444-9.142 1.75C18.483 3.743 16.868 5.359 14.874 5.359" fill="#1d1d1b"/>
          <path transform="matrix(1,0,0,-1,472.3648,272.3588)" d="M0 0V-17.481C0-18.439-.38-19.357-1.057-20.033L-7.58-26.556C-8.256-27.233-9.174-27.613-10.132-27.613H-57.173C-59.166-27.613-60.782-25.997-60.782-24.004V0C-60.782 1.993-59.166 3.609-57.173 3.609H-3.609C-1.616 3.609 0 1.993 0 0M14.874 5.359H5.359C3.366 5.359 1.75 6.975 1.75 8.968V18.484C1.75 20.477 .134 22.093-1.859 22.093H-42.91C-43.867 22.093-44.785 21.713-45.462 21.036L-78.209-11.711C-78.886-12.388-79.266-13.306-79.266-14.263V-25.754C-79.266-27.747-77.65-29.363-75.657-29.363H-66.061C-64.068-29.363-62.452-30.979-62.452-32.972V-42.488C-62.452-44.481-60.836-46.097-58.843-46.097H-26.141C-25.184-46.097-24.266-45.717-23.589-45.04L-6.161-27.612C-3.888-25.338 0-26.949 0-30.164V-58.137C0-60.131-1.616-61.746-3.609-61.746H-64.568C-66.561-61.746-68.177-63.362-68.177-65.355V-76.621C-68.177-78.614-66.561-80.23-64.568-80.23H-16.992C-16.034-80.23-15.116-79.85-14.44-79.173L16.949-47.784C17.931-46.802 18.483-45.469 18.483-44.08V-21.444-9.142 1.75C18.483 3.743 16.868 5.359 14.874 5.359" fill="#1d1d1b"/>
          <path transform="matrix(1,0,0,-1,522.2013,300.6047)" d="M0 0 4.638 .451C4.916-1.105 5.482-2.249 6.336-2.979 7.189-3.709 8.342-4.074 9.791-4.074 11.326-4.074 12.482-3.75 13.262-3.1 14.04-2.45 14.43-1.69 14.43-.821 14.43-.263 14.266 .212 13.938 .604 13.61 .996 13.039 1.337 12.223 1.627 11.664 1.82 10.393 2.164 8.406 2.657 5.851 3.291 4.058 4.069 3.027 4.993 1.578 6.292 .854 7.875 .854 9.743 .854 10.946 1.193 12.07 1.875 13.117 2.557 14.164 3.539 14.962 4.822 15.509 6.105 16.057 7.654 16.33 9.469 16.33 12.432 16.33 14.662 15.681 16.16 14.382 17.658 13.083 18.444 11.349 18.52 9.18L13.753 8.971C13.549 10.184 13.111 11.056 12.44 11.588 11.77 12.119 10.763 12.385 9.42 12.385 8.035 12.385 6.951 12.101 6.168 11.531 5.662 11.166 5.41 10.678 5.41 10.065 5.41 9.507 5.646 9.029 6.119 8.633 6.721 8.128 8.181 7.602 10.5 7.054 12.818 6.507 14.533 5.94 15.645 5.355 16.756 4.77 17.626 3.97 18.254 2.955 18.882 1.94 19.196 .687 19.196-.805 19.196-2.158 18.82-3.425 18.068-4.605 17.317-5.787 16.254-6.664 14.88-7.238 13.506-7.813 11.793-8.101 9.742-8.101 6.758-8.101 4.466-7.41 2.866-6.031 1.266-4.651 .311-2.641 0 0" fill="#1d1d1b"/>
          <path transform="matrix(1,0,0,-1,550.7228,308.28633)" d="M0 0V19.615H-7.006V23.609H11.756V19.615H4.766V0Z" fill="#1d1d1b"/>
          <path transform="matrix(1,0,0,-1,565.5216,284.6769)" d="M0 0H4.768V-12.787C4.768-14.816 4.826-16.132 4.945-16.732 5.148-17.699 5.635-18.475 6.402-19.06 7.17-19.646 8.219-19.937 9.551-19.937 10.903-19.937 11.924-19.661 12.611-19.108 13.297-18.556 13.711-17.876 13.851-17.071 13.99-16.266 14.061-14.929 14.061-13.061V0H18.827V-12.4C18.827-15.235 18.698-17.237 18.44-18.407 18.183-19.578 17.707-20.565 17.016-21.371 16.322-22.176 15.396-22.817 14.237-23.295 13.078-23.772 11.564-24.012 9.695-24.012 7.441-24.012 5.73-23.752 4.566-23.23 3.401-22.71 2.48-22.034 1.805-21.202 1.128-20.37 .682-19.497 .468-18.585 .156-17.231 0-15.235 0-12.594Z" fill="#1d1d1b"/>
          <path transform="matrix(1,0,0,-1,594.1241,288.6711)" d="M0 0V-15.638H3.56C4.89-15.638 5.852-15.563 6.442-15.412 7.215-15.219 7.856-14.892 8.366-14.43 8.876-13.968 9.292-13.208 9.614-12.15 9.937-11.094 10.098-9.652 10.098-7.826 10.098-6.002 9.937-4.601 9.614-3.623 9.292-2.646 8.841-1.884 8.262-1.337 7.683-.789 6.946-.419 6.056-.226 5.39-.075 4.085 0 2.142 0ZM-4.767 3.994H3.946C5.911 3.994 7.408 3.844 8.438 3.543 9.823 3.135 11.011 2.41 11.998 1.369 12.985 .327 13.737-.947 14.253-2.456 14.769-3.964 15.026-5.824 15.026-8.036 15.026-9.979 14.784-11.654 14.301-13.061 13.71-14.778 12.868-16.169 11.772-17.231 10.946-18.037 9.829-18.665 8.423-19.116 7.37-19.449 5.964-19.615 4.204-19.615H-4.767Z" fill="#1d1d1b"/>
          <path transform="matrix(1,0,0,-1,0,595.276)" d="M613.047 310.599H617.815V286.99H613.047Z" fill="#1d1d1b"/>
          <path transform="matrix(1,0,0,-1,626.3009,296.465)" d="M0 0C0-2.674 .617-4.7 1.852-6.08 3.086-7.46 4.654-8.149 6.554-8.149 8.454-8.149 10.015-7.465 11.233-6.096 12.452-4.728 13.062-2.674 13.062 .063 13.062 2.77 12.468 4.788 11.282 6.119 10.095 7.45 8.519 8.116 6.554 8.116 4.59 8.116 3.006 7.442 1.804 6.095 .602 4.748 0 2.716 0 0M-4.912-.161C-4.912 2.243-4.553 4.262-3.833 5.894-3.297 7.096-2.563 8.175-1.635 9.131-.706 10.086 .312 10.795 1.417 11.257 2.889 11.879 4.584 12.19 6.507 12.19 9.985 12.19 12.769 11.111 14.856 8.954 16.944 6.796 17.989 3.795 17.989-.049 17.989-3.86 16.952-6.843 14.88-8.995 12.808-11.147 10.038-12.224 6.571-12.224 3.061-12.224 .268-11.153-1.804-9.011-3.876-6.869-4.912-3.92-4.912-.161" fill="#1d1d1b"/>
        </g>
      </svg>